<?xml version="1.0" encoding="UTF-8"?>
<!DOCTYPE svg PUBLIC "-//W3C//DTD SVG 1.1//EN" "http://www.w3.org/Graphics/SVG/1.1/DTD/svg11.dtd">
<!-- Creator: CorelDRAW (Evaluation Version) -->
<svg xmlns="http://www.w3.org/2000/svg" xml:space="preserve" width="780px" height="780px" version="1.1" style="shape-rendering:geometricPrecision; text-rendering:geometricPrecision; image-rendering:optimizeQuality; fill-rule:evenodd; clip-rule:evenodd"
viewBox="0 0 780 780"
 xmlns:xlink="http://www.w3.org/1999/xlink"
 xmlns:xodm="http://www.corel.com/coreldraw/odm/2003">
 <defs>
  <style type="text/css">
   <![CDATA[
    .fil0 {fill:url(#id0);fill-rule:nonzero}
   ]]>
  </style>
  <linearGradient id="id0" gradientUnits="userSpaceOnUse" x1="256.49" y1="178.04" x2="523.51" y2="601.96">
   <stop offset="0" style="stop-opacity:1; stop-color:#91F3FE"/>
   <stop offset="1" style="stop-opacity:1; stop-color:#5D9AFC"/>
  </linearGradient>
 </defs>
 <g id="Layer_x0020_1">
  <metadata id="CorelCorpID_0Corel-Layer"/>
  <path class="fil0" d="M386.68 581.22c1.59,0 3.16,-0.35 4.7,-1.05 1.55,-0.7 2.81,-1.55 3.81,-2.53l195.29 -195.28c5.05,-5.07 8.8,-10.83 11.23,-17.29 2.43,-6.45 3.64,-13 3.64,-19.64 0,-6.94 -1.21,-13.59 -3.64,-19.94 -2.43,-6.35 -6.18,-11.91 -11.23,-16.67l-96.31 -96.29c-4.57,-4.88 -9.82,-8.4 -15.74,-10.54 -5.91,-2.14 -12.16,-3.21 -18.72,-3.21 -6.17,0 -12.32,1.07 -18.43,3.21 -6.12,2.14 -11.52,5.47 -16.21,9.96l-5.28 5.43 43.07 43.53c6.46,6.15 11.19,13.07 14.23,20.77 3.02,7.69 4.53,15.9 4.53,24.64 0,17.88 -6.1,32.92 -18.32,45.12 -12.2,12.22 -27.25,18.32 -45.12,18.32 -8.64,0 -16.91,-1.51 -24.8,-4.54 -7.89,-3.03 -14.91,-7.62 -21.06,-13.76l-44.38 -43.93 -101.29 101.14c-1.2,1.2 -2.1,2.51 -2.7,3.95 -0.59,1.45 -0.89,2.96 -0.89,4.55 0,3.19 1.17,6.04 3.51,8.53 2.34,2.5 5.11,3.74 8.3,3.74 1.59,0 3.2,-0.39 4.85,-1.2 1.64,-0.79 2.86,-1.59 3.66,-2.38l79.41 -79.27 33.46 33.46 -78.81 79.27c-1.2,1.19 -2.09,2.54 -2.69,4.03 -0.6,1.49 -0.9,3.02 -0.9,4.62 0,3.19 1.15,5.93 3.44,8.22 2.3,2.3 5.04,3.45 8.22,3.45 1.6,0 3.22,-0.4 4.86,-1.2 1.64,-0.79 2.9,-1.6 3.8,-2.39l78.97 -78.53 33.47 33.47 -78.82 79.26c-1.09,0.8 -1.96,2.02 -2.61,3.66 -0.64,1.65 -0.97,3.26 -0.97,4.85 0,3.19 1.18,5.96 3.52,8.3 2.34,2.34 5.1,3.51 8.29,3.51 1.59,0 3.12,-0.3 4.56,-0.89 1.44,-0.6 2.76,-1.5 3.95,-2.7l79.27 -78.81 33.46 33.46 -79.27 79.28c-1.19,1.19 -2.08,2.53 -2.68,4.02 -0.6,1.49 -0.9,3.03 -0.9,4.63 0,3.18 1.24,5.93 3.74,8.22 2.49,2.3 5.34,3.44 8.53,3.44zm-0.47 52.23c-15.3,0 -28.92,-4.92 -40.85,-14.78 -11.92,-9.86 -19.17,-22.34 -21.73,-37.46 -13.17,-2.18 -24.35,-7.91 -33.56,-17.16 -9.21,-9.26 -14.91,-20.47 -17.09,-33.63 -13.07,-2.28 -24.11,-8.05 -33.12,-17.32 -9.01,-9.27 -14.65,-20.28 -16.94,-33.05 -15.23,-2.47 -27.74,-9.61 -37.54,-21.43 -9.8,-11.82 -14.7,-25.64 -14.7,-41.45 0,-8.44 1.62,-16.61 4.83,-24.5 3.23,-7.89 7.83,-14.82 13.79,-20.77l138.64 -138.19 80.99 81c0.98,1.29 2.27,2.26 3.87,2.9 1.59,0.65 3.24,0.97 4.93,0.97 3.48,0 6.37,-1.1 8.67,-3.29 2.29,-2.19 3.44,-5.03 3.44,-8.52 0,-1.59 -0.32,-3.26 -0.97,-5 -0.65,-1.73 -1.56,-3 -2.76,-3.79l-85.88 -85.89c-4.29,-4.69 -9.48,-8.07 -15.59,-10.17 -6.11,-2.1 -12.55,-3.14 -19.3,-3.14 -6.45,0 -12.71,1.04 -18.78,3.14 -6.07,2.1 -11.45,5.48 -16.13,10.17l-82.26 82.72c-3.31,3.3 -6.08,7.39 -8.33,12.26 -2.25,4.88 -3.72,9.94 -4.42,15.19 -0.7,4.21 -0.66,8.52 0.15,12.93 0.79,4.41 2.19,8.62 4.2,12.61l-37.8 37.8c-6.68,-8.58 -11.73,-18.49 -15.16,-29.74 -3.41,-11.24 -4.78,-22.44 -4.07,-33.6 0.69,-12.19 3.41,-23.81 8.15,-34.84 4.73,-11.04 11.47,-20.93 20.21,-29.68l82.11 -82.25c9.85,-9.54 21.08,-16.75 33.69,-21.63 12.61,-4.88 25.42,-7.31 38.44,-7.31 13.31,0 26.19,2.43 38.66,7.31 12.46,4.88 23.41,11.94 32.86,21.19l5.43 5.29 5.29 -5.29c9.66,-9.06 20.8,-16.08 33.41,-21.05 12.61,-4.96 25.51,-7.45 38.72,-7.45 13.01,0 25.8,2.53 38.36,7.59 12.57,5.07 23.62,12.38 33.17,21.92l96.98 96.84c9.55,9.55 16.8,20.8 21.77,33.74 4.97,12.96 7.45,26.04 7.45,39.24 0,13.3 -2.55,26.43 -7.66,39.37 -5.11,12.94 -12.54,24.28 -22.27,34.02l-195.72 195.12c-6.05,6.05 -13,10.74 -20.85,14.06 -7.84,3.34 -16.09,5 -24.73,5zm-64.15 -342.49z"/>
 </g>
</svg>
