<?xml version="1.0" encoding="UTF-8"?>
<!DOCTYPE svg PUBLIC "-//W3C//DTD SVG 1.1//EN" "http://www.w3.org/Graphics/SVG/1.1/DTD/svg11.dtd">
<!-- Creator: CorelDRAW (Evaluation Version) -->
<svg xmlns="http://www.w3.org/2000/svg" xml:space="preserve" width="780px" height="780px" version="1.1" style="shape-rendering:geometricPrecision; text-rendering:geometricPrecision; image-rendering:optimizeQuality; fill-rule:evenodd; clip-rule:evenodd"
viewBox="0 0 780 780"
 xmlns:xlink="http://www.w3.org/1999/xlink"
 xmlns:xodm="http://www.corel.com/coreldraw/odm/2003">
 <defs>
  <style type="text/css">
   <![CDATA[
    .fil0 {fill:url(#id0);fill-rule:nonzero}
   ]]>
  </style>
  <linearGradient id="id0" gradientUnits="userSpaceOnUse" x1="312.44" y1="235.87" x2="467.57" y2="544.13">
   <stop offset="0" style="stop-opacity:1; stop-color:#91F3FE"/>
   <stop offset="1" style="stop-opacity:1; stop-color:#5D9AFC"/>
  </linearGradient>
 </defs>
 <g id="Layer_x0020_1">
  <metadata id="CorelCorpID_0Corel-Layer"/>
  <path class="fil0" d="M171.59 548.84l0 -79.41c0,-11.26 3.89,-20.69 11.67,-28.3 7.78,-7.61 17.12,-11.42 28.05,-11.42l65.02 0c6.62,0 12.9,1.65 18.86,4.96 5.96,3.31 10.76,7.78 14.39,13.41 9.6,12.9 21.44,23 35.5,30.28 14.06,7.28 29.03,10.92 44.92,10.92 16.22,0 31.35,-3.64 45.42,-10.92 14.06,-7.28 25.73,-17.38 35,-30.28 4.3,-5.63 9.34,-10.1 15.13,-13.41 5.8,-3.31 11.84,-4.96 18.12,-4.96l65.02 0c11.26,0 20.69,3.81 28.3,11.42 7.61,7.61 11.42,17.04 11.42,28.29l0 79.42 -138.99 0 0 -45.16c-11.58,8.27 -24.07,14.56 -37.48,18.85 -13.4,4.3 -27.38,6.46 -41.94,6.46 -14.23,0 -28.13,-2.24 -41.69,-6.7 -13.57,-4.47 -26.15,-10.84 -37.73,-19.12l0 45.67 -138.99 0zm218.41 -79.42c-12.58,0 -24.49,-2.9 -35.74,-8.68 -11.25,-5.8 -20.68,-13.82 -28.29,-24.08 -5.63,-8.28 -12.66,-14.81 -21.1,-19.61 -8.43,-4.79 -17.62,-7.19 -27.55,-7.19 7.28,-12.25 22.67,-21.93 46.16,-29.04 23.5,-7.12 45.67,-10.68 66.52,-10.68 20.85,0 43.02,3.56 66.52,10.68 23.49,7.11 38.88,16.79 46.16,29.04 -9.6,0 -18.69,2.4 -27.3,7.19 -8.6,4.8 -15.72,11.33 -21.34,19.61 -7.28,10.59 -16.55,18.7 -27.8,24.32 -11.26,5.63 -23.33,8.44 -36.24,8.44zm-158.84 -59.56c-16.55,0 -30.61,-5.8 -42.19,-17.37 -11.58,-11.59 -17.38,-25.66 -17.38,-42.2 0,-16.88 5.8,-31.03 17.38,-42.44 11.58,-11.41 25.64,-17.12 42.19,-17.12 16.87,0 31.02,5.71 42.44,17.12 11.42,11.41 17.13,25.56 17.13,42.44 0,16.54 -5.71,30.61 -17.13,42.2 -11.42,11.57 -25.57,17.37 -42.44,17.37zm317.69 0c-16.55,0 -30.61,-5.8 -42.2,-17.37 -11.58,-11.59 -17.37,-25.66 -17.37,-42.2 0,-16.88 5.79,-31.03 17.37,-42.44 11.59,-11.41 25.65,-17.12 42.2,-17.12 16.87,0 31.02,5.71 42.43,17.12 11.42,11.41 17.13,25.56 17.13,42.44 0,16.54 -5.71,30.61 -17.13,42.2 -11.41,11.57 -25.56,17.37 -42.43,17.37zm-158.85 -59.57c-16.55,0 -30.61,-5.79 -42.19,-17.38 -11.58,-11.57 -17.37,-25.64 -17.37,-42.18 0,-16.88 5.79,-31.03 17.37,-42.45 11.58,-11.41 25.64,-17.12 42.19,-17.12 16.88,0 31.02,5.71 42.44,17.12 11.42,11.42 17.13,25.57 17.13,42.45 0,16.54 -5.71,30.61 -17.13,42.18 -11.42,11.59 -25.56,17.38 -42.44,17.38z"/>
 </g>
</svg>
