<?xml version="1.0" encoding="UTF-8"?>
<!DOCTYPE svg PUBLIC "-//W3C//DTD SVG 1.1//EN" "http://www.w3.org/Graphics/SVG/1.1/DTD/svg11.dtd">
<!-- Creator: CorelDRAW (Evaluation Version) -->
<svg xmlns="http://www.w3.org/2000/svg" xml:space="preserve" width="780px" height="780px" version="1.1" style="shape-rendering:geometricPrecision; text-rendering:geometricPrecision; image-rendering:optimizeQuality; fill-rule:evenodd; clip-rule:evenodd"
viewBox="0 0 780 780"
 xmlns:xlink="http://www.w3.org/1999/xlink"
 xmlns:xodm="http://www.corel.com/coreldraw/odm/2003">
 <defs>
  <style type="text/css">
   <![CDATA[
    .fil0 {fill:url(#id0);fill-rule:nonzero}
   ]]>
  </style>
  <linearGradient id="id0" gradientUnits="userSpaceOnUse" x1="277.11" y1="189.4" x2="502.89" y2="590.6">
   <stop offset="0" style="stop-opacity:1; stop-color:#91F3FE"/>
   <stop offset="1" style="stop-opacity:1; stop-color:#5D9AFC"/>
  </linearGradient>
 </defs>
 <g id="Layer_x0020_1">
  <metadata id="CorelCorpID_0Corel-Layer"/>
  <path class="fil0" d="M390 607.2l-169.32 -91.69 0 -143.42 -97.75 -53.73 267.07 -145.56 267.07 145.56 0 193.36 -52.23 0.01 0 -164.63 -45.51 25 0 143.42 -169.33 91.68zm0 -203.25l158.45 -85.59 -158.45 -85.58 -158.45 85.58 158.45 85.59zm0 143.87l117.08 -63.26 0 -84.8 -117.08 64.17 -117.08 -64.16 0 84.8 117.08 63.25zm0 -143.87zm0 55.78zm0 0z"/>
 </g>
</svg>
