<?xml version="1.0" encoding="UTF-8"?>
<!DOCTYPE svg PUBLIC "-//W3C//DTD SVG 1.1//EN" "http://www.w3.org/Graphics/SVG/1.1/DTD/svg11.dtd">
<!-- Creator: CorelDRAW (Evaluation Version) -->
<svg xmlns="http://www.w3.org/2000/svg" xml:space="preserve" width="780px" height="780px" version="1.1" style="shape-rendering:geometricPrecision; text-rendering:geometricPrecision; image-rendering:optimizeQuality; fill-rule:evenodd; clip-rule:evenodd"
viewBox="0 0 780 780"
 xmlns:xlink="http://www.w3.org/1999/xlink"
 xmlns:xodm="http://www.corel.com/coreldraw/odm/2003">
 <defs>
  <style type="text/css">
   <![CDATA[
    .fil0 {fill:url(#id0);fill-rule:nonzero}
   ]]>
  </style>
  <linearGradient id="id0" gradientUnits="userSpaceOnUse" x1="248.04" y1="203.51" x2="531.95" y2="576.49">
   <stop offset="0" style="stop-opacity:1; stop-color:#91F3FE"/>
   <stop offset="1" style="stop-opacity:1; stop-color:#5D9AFC"/>
  </linearGradient>
 </defs>
 <g id="Layer_x0020_1">
  <metadata id="CorelCorpID_0Corel-Layer"/>
  <path class="fil0" d="M213.84 588.17c-12.11,0 -22.47,-4.31 -31.1,-12.93 -8.62,-8.62 -12.94,-18.99 -12.93,-31.1l0 -308.28c0,-12.11 4.31,-22.48 12.93,-31.1 8.63,-8.62 18.99,-12.94 31.1,-12.93l92.49 0c4.77,-13.22 12.75,-23.86 23.94,-31.93 11.2,-8.08 23.76,-12.11 37.71,-12.11 13.95,0 26.52,4.03 37.71,12.11 11.19,8.07 19.17,18.71 23.94,31.93l92.49 0c12.11,0 22.48,4.31 31.1,12.93 8.62,8.62 12.94,18.99 12.93,31.1l0 147.53c-6.97,-3.3 -14.12,-6.14 -21.46,-8.53 -7.34,-2.39 -14.87,-4.13 -22.57,-5.22l0 -133.77 -308.28 -0.01 0 308.28 133.22 0c1.11,8.07 2.84,15.78 5.23,23.12 2.38,7.34 5.23,14.31 8.53,20.91l-146.98 0zm0 -66.05l0 22.02 0 -308.28 0 133.77 0 -1.65 0 154.14zm44.05 -22.02l89.73 0c1.09,-7.71 2.83,-15.23 5.22,-22.58 2.39,-7.33 5.05,-14.49 7.98,-21.47l-102.93 0 0 44.05zm0 -88.08l134.31 0c11.74,-11.01 24.87,-20.19 39.36,-27.52 14.5,-7.34 30,-12.3 46.52,-14.86l0 -1.65 -220.19 -0.01 0 44.04zm0 -88.08l220.19 0 0 -44.04 -220.19 0 0 44.05 0 -0.01zm121.92 -109.27c3.13,-3.12 4.68,-7.06 4.68,-11.84 0,-4.77 -1.55,-8.71 -4.68,-11.83 -3.12,-3.12 -7.06,-4.68 -11.83,-4.68 -4.77,0 -8.71,1.56 -11.83,4.68 -3.12,3.12 -4.68,7.06 -4.68,11.83 0,4.78 1.56,8.72 4.68,11.84 3.12,3.12 7.06,4.68 11.83,4.68 4.77,0 8.71,-1.56 11.83,-4.68zm42.39 385.34c-21.46,-21.47 -32.2,-47.43 -32.2,-77.89 0,-30.46 10.74,-56.43 32.2,-77.9 21.47,-21.46 47.44,-32.2 77.9,-32.2 30.46,0 56.42,10.74 77.89,32.2 21.47,21.47 32.2,47.44 32.2,77.9 0,30.46 -10.73,56.42 -32.2,77.89 -21.47,21.47 -47.43,32.2 -77.89,32.2 -30.46,0 -56.43,-10.73 -77.9,-32.2zm77.9 -0.83c19.81,0 36.97,-6.6 51.47,-19.82 14.49,-13.2 22.84,-29.54 25.04,-48.99 -1.83,0.73 -3.58,1.38 -5.23,1.93 -1.65,0.55 -3.39,0.83 -5.23,0.83l-22.01 0c-6.24,0 -11.47,-2.12 -15.69,-6.34 -4.23,-4.22 -6.33,-9.44 -6.33,-15.68l0 -11.01 -44.04 0 0 -22.03c0,-6.23 2.11,-11.46 6.33,-15.68 4.22,-4.22 9.44,-6.34 15.69,-6.34l11.01 0c0,-1.83 0.18,-3.57 0.55,-5.22 0.36,-1.65 0.91,-3.22 1.65,-4.68 -2.2,-0.37 -4.41,-0.64 -6.61,-0.82 -2.2,-0.19 -4.4,-0.28 -6.6,-0.28 -21.29,0 -39.45,7.52 -54.5,22.57 -15.04,15.05 -22.57,33.21 -22.57,54.5l44.04 0c12.1,0 22.47,4.31 31.1,12.93 8.63,8.63 12.94,18.99 12.94,31.11l0 11.01 -33.03 0 0 18.71c3.67,1.1 7.24,1.93 10.73,2.48 3.49,0.55 7.25,0.82 11.29,0.82z"/>
 </g>
</svg>
