<?xml version="1.0" encoding="UTF-8"?>
<!DOCTYPE svg PUBLIC "-//W3C//DTD SVG 1.1//EN" "http://www.w3.org/Graphics/SVG/1.1/DTD/svg11.dtd">
<!-- Creator: CorelDRAW (Evaluation Version) -->
<svg xmlns="http://www.w3.org/2000/svg" xml:space="preserve" width="780px" height="780px" version="1.1" style="shape-rendering:geometricPrecision; text-rendering:geometricPrecision; image-rendering:optimizeQuality; fill-rule:evenodd; clip-rule:evenodd"
viewBox="0 0 780 780"
 xmlns:xlink="http://www.w3.org/1999/xlink"
 xmlns:xodm="http://www.corel.com/coreldraw/odm/2003">
 <defs>
  <style type="text/css">
   <![CDATA[
    .fil0 {fill:url(#id0);fill-rule:nonzero}
   ]]>
  </style>
  <linearGradient id="id0" gradientUnits="userSpaceOnUse" x1="266.41" y1="211.39" x2="513.59" y2="568.61">
   <stop offset="0" style="stop-opacity:1; stop-color:#91F3FE"/>
   <stop offset="1" style="stop-opacity:1; stop-color:#5D9AFC"/>
  </linearGradient>
 </defs>
 <g id="Layer_x0020_1">
  <metadata id="CorelCorpID_0Corel-Layer"/>
  <path class="fil0" d="M305.83 590.1c-26.43,-11.4 -49.5,-26.98 -69.23,-46.7 -19.72,-19.73 -35.3,-42.81 -46.7,-69.23 -11.4,-26.43 -17.1,-54.58 -17.1,-84.44 0,-29.87 5.7,-57.93 17.1,-84.17 11.4,-26.24 26.98,-49.23 46.7,-68.96 19.73,-19.72 42.8,-35.3 69.23,-46.7 26.43,-11.4 54.58,-17.1 84.44,-17.1 29.87,0 57.92,5.7 84.17,17.1 26.24,11.4 49.23,26.98 68.96,46.7 19.72,19.73 35.3,42.72 46.7,68.96 11.4,26.24 17.1,54.3 17.1,84.17 0,29.86 -5.7,58.01 -17.1,84.44 -11.4,26.42 -26.98,49.5 -46.7,69.23 -19.73,19.72 -42.72,35.3 -68.96,46.7 -26.25,11.4 -54.3,17.1 -84.17,17.1 -29.86,0 -58.01,-5.7 -84.44,-17.1zm84.17 -27.43c9.42,-13.03 17.56,-26.6 24.44,-40.72 6.87,-14.12 12.48,-29.14 16.83,-45.07l-82.54 0c4.35,15.92 9.96,30.95 16.83,45.07 6.88,14.12 15.02,27.69 24.44,40.72zm-56.47 -8.68c-6.52,-11.95 -12.22,-24.34 -17.11,-37.2 -4.88,-12.85 -8.96,-26.15 -12.21,-39.91l-64.08 0c10.5,18.1 23.62,33.84 39.37,47.24 15.75,13.4 33.75,23.35 54.03,29.87zm112.94 0c20.28,-6.52 38.28,-16.47 54.03,-29.87 15.75,-13.4 28.87,-29.14 39.37,-47.24l-64.08 0c-3.25,13.76 -7.33,27.06 -12.21,39.91 -4.89,12.86 -10.59,25.25 -17.11,37.2zm-224.8 -120.55l73.85 0c-1.09,-7.24 -1.9,-14.39 -2.45,-21.45 -0.54,-7.06 -0.81,-14.39 -0.81,-21.99 0,-7.6 0.27,-14.93 0.81,-21.99 0.55,-7.06 1.36,-14.21 2.45,-21.45l-73.85 0c-1.81,7.24 -3.17,14.39 -4.07,21.45 -0.91,7.06 -1.36,14.39 -1.36,21.99 0,7.6 0.45,14.93 1.36,21.99 0.9,7.06 2.26,14.21 4.07,21.45zm117.28 0l102.1 0c1.08,-7.24 1.89,-14.39 2.43,-21.45 0.55,-7.06 0.82,-14.39 0.82,-21.99 0,-7.6 -0.27,-14.93 -0.82,-21.99 -0.54,-7.06 -1.35,-14.21 -2.43,-21.45l-102.1 0c-1.08,7.24 -1.89,14.39 -2.43,21.45 -0.55,7.06 -0.82,14.39 -0.82,21.99 0,7.6 0.27,14.93 0.82,21.99 0.54,7.06 1.35,14.21 2.43,21.45zm145.53 0l73.85 0c1.81,-7.24 3.17,-14.39 4.07,-21.45 0.91,-7.06 1.36,-14.39 1.36,-21.99 0,-7.6 -0.45,-14.93 -1.36,-21.99 -0.9,-7.06 -2.26,-14.21 -4.07,-21.45l-73.85 0c1.09,7.24 1.9,14.39 2.45,21.45 0.54,7.06 0.81,14.39 0.81,21.99 0,7.6 -0.27,14.93 -0.81,21.99 -0.55,7.06 -1.36,14.21 -2.45,21.45zm-8.69 -130.32l64.08 0c-10.5,-18.1 -23.62,-33.85 -39.37,-47.24 -15.75,-13.4 -33.75,-23.35 -54.03,-29.87 6.52,11.95 12.22,24.34 17.11,37.2 4.88,12.85 8.96,26.15 12.21,39.91zm-127.06 0l82.54 0c-4.35,-15.93 -9.96,-30.96 -16.83,-45.07 -6.88,-14.12 -15.02,-27.7 -24.44,-40.72 -9.42,13.02 -17.56,26.6 -24.44,40.72 -6.87,14.11 -12.48,29.14 -16.83,45.07zm-108.6 0l64.08 0c3.25,-13.76 7.33,-27.06 12.21,-39.91 4.89,-12.86 10.59,-25.25 17.11,-37.2 -20.28,6.52 -38.28,16.47 -54.03,29.87 -15.75,13.39 -28.87,29.14 -39.37,47.24z"/>
 </g>
</svg>
