<?xml version="1.0" encoding="UTF-8"?>
<!DOCTYPE svg PUBLIC "-//W3C//DTD SVG 1.1//EN" "http://www.w3.org/Graphics/SVG/1.1/DTD/svg11.dtd">
<!-- Creator: CorelDRAW (Evaluation Version) -->
<svg xmlns="http://www.w3.org/2000/svg" xml:space="preserve" width="780px" height="780px" version="1.1" style="shape-rendering:geometricPrecision; text-rendering:geometricPrecision; image-rendering:optimizeQuality; fill-rule:evenodd; clip-rule:evenodd"
viewBox="0 0 780 780"
 xmlns:xlink="http://www.w3.org/1999/xlink"
 xmlns:xodm="http://www.corel.com/coreldraw/odm/2003">
 <defs>
  <style type="text/css">
   <![CDATA[
    .fil0 {fill:url(#id0);fill-rule:nonzero}
   ]]>
  </style>
  <linearGradient id="id0" gradientUnits="userSpaceOnUse" x1="265.27" y1="209.75" x2="514.73" y2="570.25">
   <stop offset="0" style="stop-opacity:1; stop-color:#91F3FE"/>
   <stop offset="1" style="stop-opacity:1; stop-color:#5D9AFC"/>
  </linearGradient>
 </defs>
 <g id="Layer_x0020_1">
  <metadata id="CorelCorpID_0Corel-Layer"/>
  <path class="fil0" d="M236.56 521.51l0 -153.43 43.84 0 0 153.43 -43.84 0zm131.52 0l0 -153.43 43.84 0 0 153.43 -43.84 0zm-197.27 87.68l0 -43.84 438.38 0 0 43.85 -438.38 -0.01zm328.78 -87.68l0 -153.43 43.85 0 0 153.43 -43.85 0zm-328.78 -197.27l0 -43.84 219.19 -109.59 219.19 109.59 0 43.84 -438.38 0zm97.54 -43.84l243.3 0 -243.3 0zm0 0l243.3 0 -121.65 -60.28 -121.65 60.28z"/>
 </g>
</svg>
