<?xml version="1.0" encoding="UTF-8"?>
<!DOCTYPE svg PUBLIC "-//W3C//DTD SVG 1.1//EN" "http://www.w3.org/Graphics/SVG/1.1/DTD/svg11.dtd">
<!-- Creator: CorelDRAW (Evaluation Version) -->
<svg xmlns="http://www.w3.org/2000/svg" xml:space="preserve" width="780px" height="780px" version="1.1" style="shape-rendering:geometricPrecision; text-rendering:geometricPrecision; image-rendering:optimizeQuality; fill-rule:evenodd; clip-rule:evenodd"
viewBox="0 0 780 780"
 xmlns:xlink="http://www.w3.org/1999/xlink"
 xmlns:xodm="http://www.corel.com/coreldraw/odm/2003">
 <defs>
  <style type="text/css">
   <![CDATA[
    .fil0 {fill:url(#id0);fill-rule:nonzero}
   ]]>
  </style>
  <linearGradient id="id0" gradientUnits="userSpaceOnUse" x1="258.12" y1="237.53" x2="521.88" y2="542.48">
   <stop offset="0" style="stop-opacity:1; stop-color:#91F3FE"/>
   <stop offset="1" style="stop-opacity:1; stop-color:#5D9AFC"/>
  </linearGradient>
 </defs>
 <g id="Layer_x0020_1">
  <metadata id="CorelCorpID_0Corel-Layer"/>
  <path class="fil0" d="M390 609.19c-50.78,-12.78 -92.7,-41.92 -125.75,-87.4 -33.07,-45.48 -49.6,-95.98 -49.6,-151.51l0 -133.71 175.35 -65.76 175.35 65.75 0 133.71c0,55.53 -16.53,106.04 -49.6,151.52 -33.05,45.48 -74.97,74.62 -125.75,87.4zm0 -46.03c37.99,-12.05 69.41,-36.17 94.25,-72.33 24.84,-36.17 37.26,-76.35 37.26,-120.55l0 -103.57 -131.51 -49.32 -131.51 49.32 0 103.57c0,44.2 12.42,84.38 37.26,120.55 24.84,36.16 56.26,60.28 94.25,72.33z"/>
 </g>
</svg>
