<?xml version="1.0" encoding="UTF-8"?>
<!DOCTYPE svg PUBLIC "-//W3C//DTD SVG 1.1//EN" "http://www.w3.org/Graphics/SVG/1.1/DTD/svg11.dtd">
<!-- Creator: CorelDRAW (Evaluation Version) -->
<svg xmlns="http://www.w3.org/2000/svg" xml:space="preserve" width="780px" height="780px" version="1.1" style="shape-rendering:geometricPrecision; text-rendering:geometricPrecision; image-rendering:optimizeQuality; fill-rule:evenodd; clip-rule:evenodd"
viewBox="0 0 780 780"
 xmlns:xlink="http://www.w3.org/1999/xlink"
 xmlns:xodm="http://www.corel.com/coreldraw/odm/2003">
 <defs>
  <style type="text/css">
   <![CDATA[
    .fil0 {fill:url(#id0);fill-rule:nonzero}
   ]]>
  </style>
  <linearGradient id="id0" gradientUnits="userSpaceOnUse" x1="250.01" y1="241.36" x2="529.99" y2="538.64">
   <stop offset="0" style="stop-opacity:1; stop-color:#91F3FE"/>
   <stop offset="1" style="stop-opacity:1; stop-color:#5D9AFC"/>
  </linearGradient>
 </defs>
 <g id="Layer_x0020_1">
  <metadata id="CorelCorpID_0Corel-Layer"/>
  <path class="fil0" d="M220.54 620.65l0 -52.1 119.51 0 0 -43.52c-33.25,-0.57 -61.49,-12.67 -84.7,-36.31 -23.21,-23.64 -34.81,-52.09 -34.81,-85.34 0,-23.92 6.46,-45.72 19.38,-65.41 12.92,-19.67 30.34,-34.38 52.29,-44.11 2.9,-13.74 9.68,-25.1 20.35,-34.09 10.67,-8.98 22.98,-14 36.92,-15.05l-13.01 -36.33 24.86 -9.37 -8.37 -21.51 49.7 -18.16 7.31 22.71 24.42 -9.08 68.89 187.55 -24.71 9.08 8.36 22.71 -49.56 18.3 -7.46 -22.71 -24.56 9.23 -14.2 -38.88c-5.69,4.83 -12.08,8.47 -19.18,10.92 -7.1,2.45 -14.35,3.38 -21.75,2.77 -9.14,-0.61 -17.76,-3.13 -25.85,-7.56 -8.1,-4.44 -15.07,-10.24 -20.94,-17.39 -9.52,6.18 -17.03,14.23 -22.54,24.12 -5.51,9.9 -8.26,20.65 -8.26,32.26 0,19.35 6.76,35.78 20.27,49.29 13.52,13.51 29.95,20.27 49.29,20.27l193.37 0 0 52.1 -119.52 0 0 43.52 143.42 -0.01 0 52.1 -338.92 0zm208.9 -275.83l21.51 -8.36 -40.63 -112.34 -22.71 8.36 41.82 112.34 0.01 0zm-58.27 -20.02c4.58,-4.58 6.88,-10.26 6.88,-17.03 0,-6.77 -2.29,-12.45 -6.88,-17.03 -4.58,-4.58 -10.25,-6.87 -17.03,-6.87 -6.76,0 -12.45,2.28 -17.03,6.87 -4.58,4.58 -6.87,10.26 -6.87,17.03 0,6.77 2.29,12.45 6.87,17.03 4.58,4.58 10.27,6.87 17.03,6.87 6.78,0 12.45,-2.29 17.03,-6.87zm58.27 20.02zm-75.3 -37.05zm0 0z"/>
 </g>
</svg>
