<?xml version="1.0" encoding="UTF-8"?>
<!DOCTYPE svg PUBLIC "-//W3C//DTD SVG 1.1//EN" "http://www.w3.org/Graphics/SVG/1.1/DTD/svg11.dtd">
<!-- Creator: CorelDRAW (Evaluation Version) -->
<svg xmlns="http://www.w3.org/2000/svg" xml:space="preserve" width="780px" height="780px" version="1.1" style="shape-rendering:geometricPrecision; text-rendering:geometricPrecision; image-rendering:optimizeQuality; fill-rule:evenodd; clip-rule:evenodd"
viewBox="0 0 780 780"
 xmlns:xlink="http://www.w3.org/1999/xlink"
 xmlns:xodm="http://www.corel.com/coreldraw/odm/2003">
 <defs>
  <style type="text/css">
   <![CDATA[
    .fil0 {fill:url(#id0);fill-rule:nonzero}
   ]]>
  </style>
  <linearGradient id="id0" gradientUnits="userSpaceOnUse" x1="266.4" y1="211.4" x2="513.6" y2="568.6">
   <stop offset="0" style="stop-opacity:1; stop-color:#91F3FE"/>
   <stop offset="1" style="stop-opacity:1; stop-color:#5D9AFC"/>
  </linearGradient>
 </defs>
 <g id="Layer_x0020_1">
  <metadata id="CorelCorpID_0Corel-Layer"/>
  <path class="fil0" d="M359.81 490.47l151.99 -151.99 -33.23 -33.36 -118.75 118.74 -59.15 -59.14 -33.24 33.37 92.38 92.38zm30.19 116.73c-30.12,0 -58.4,-5.7 -84.8,-17.1 -26.41,-11.39 -49.39,-26.85 -68.92,-46.38 -19.53,-19.53 -34.99,-42.51 -46.38,-68.92 -11.4,-26.4 -17.1,-54.68 -17.1,-84.8 0,-30.12 5.7,-58.4 17.1,-84.8 11.39,-26.41 26.85,-49.38 46.38,-68.92 19.53,-19.53 42.51,-34.99 68.92,-46.38 26.4,-11.4 54.68,-17.1 84.8,-17.1 30.12,0 58.39,5.7 84.8,17.1 26.41,11.39 49.38,26.85 68.92,46.38 19.53,19.54 34.99,42.51 46.38,68.92 11.4,26.4 17.1,54.68 17.1,84.8 0,30.12 -5.7,58.4 -17.1,84.8 -11.39,26.41 -26.85,49.39 -46.38,68.92 -19.54,19.53 -42.51,34.99 -68.92,46.38 -26.41,11.4 -54.68,17.1 -84.8,17.1zm0 -48.43c47.2,0 87.13,-16.33 119.79,-48.98 32.66,-32.66 48.98,-72.59 48.98,-119.79 0,-47.2 -16.33,-87.13 -48.98,-119.79 -32.66,-32.66 -72.59,-48.98 -119.79,-48.98 -47.2,0 -87.13,16.33 -119.79,48.98 -32.66,32.66 -48.98,72.59 -48.98,119.79 0,47.2 16.33,87.13 48.98,119.79 32.66,32.66 72.59,48.98 119.79,48.98zm0 -168.77z"/>
 </g>
</svg>
