<?xml version="1.0" encoding="UTF-8"?>
<!DOCTYPE svg PUBLIC "-//W3C//DTD SVG 1.1//EN" "http://www.w3.org/Graphics/SVG/1.1/DTD/svg11.dtd">
<!-- Creator: CorelDRAW (Evaluation Version) -->
<svg xmlns="http://www.w3.org/2000/svg" xml:space="preserve" width="780px" height="780px" version="1.1" style="shape-rendering:geometricPrecision; text-rendering:geometricPrecision; image-rendering:optimizeQuality; fill-rule:evenodd; clip-rule:evenodd"
viewBox="0 0 780 780"
 xmlns:xlink="http://www.w3.org/1999/xlink"
 xmlns:xodm="http://www.corel.com/coreldraw/odm/2003">
 <defs>
  <style type="text/css">
   <![CDATA[
    .fil0 {fill:url(#id0);fill-rule:nonzero}
   ]]>
  </style>
  <linearGradient id="id0" gradientUnits="userSpaceOnUse" x1="233.12" y1="237.64" x2="546.88" y2="542.36">
   <stop offset="0" style="stop-opacity:1; stop-color:#88E4FE"/>
   <stop offset="1" style="stop-opacity:1; stop-color:#6B99F5"/>
  </linearGradient>
 </defs>
 <g id="Layer_x0020_1">
  <metadata id="CorelCorpID_0Corel-Layer"/>
  <path class="fil0" d="M286.54 438.86l0 -175.88 68.97 0 0 175.88 -34.49 -32.19 -34.48 32.19 0 0zm114.96 34.48l0 -302.33 68.96 0.01 0 233.35 -68.96 68.97zm-229.91 79.33l0 -197.72 68.97 -0.01 0 128.75 -68.97 68.98zm0 56.32l148.29 -148.29 81.63 70.12 128.75 -128.75 -36.8 0 0 -45.98 114.95 0 0 114.96 -45.98 0 0 -36.79 -158.64 158.64 -81.61 -70.13 -86.22 86.22 -64.37 0z"/>
 </g>
</svg>
