<?xml version="1.0" encoding="UTF-8"?>
<!DOCTYPE svg PUBLIC "-//W3C//DTD SVG 1.1//EN" "http://www.w3.org/Graphics/SVG/1.1/DTD/svg11.dtd">
<!-- Creator: CorelDRAW (Evaluation Version) -->
<svg xmlns="http://www.w3.org/2000/svg" xml:space="preserve" width="780px" height="780px" version="1.1" style="shape-rendering:geometricPrecision; text-rendering:geometricPrecision; image-rendering:optimizeQuality; fill-rule:evenodd; clip-rule:evenodd"
viewBox="0 0 780 780"
 xmlns:xlink="http://www.w3.org/1999/xlink"
 xmlns:xodm="http://www.corel.com/coreldraw/odm/2003">
 <defs>
  <style type="text/css">
   <![CDATA[
    .fil0 {fill:url(#id0);fill-rule:nonzero}
   ]]>
  </style>
  <linearGradient id="id0" gradientUnits="userSpaceOnUse" x1="263.52" y1="209.59" x2="516.48" y2="570.41">
   <stop offset="0" style="stop-opacity:1; stop-color:#91F3FE"/>
   <stop offset="1" style="stop-opacity:1; stop-color:#5D9AFC"/>
  </linearGradient>
 </defs>
 <g id="Layer_x0020_1">
  <metadata id="CorelCorpID_0Corel-Layer"/>
  <path class="fil0" d="M171.59 611.27l0 -52.38 53.67 -53.67 0 106.04 -53.67 0.01zm95.76 0l0 -148.13 53.8 -53.81 0 201.94 -53.8 0zm95.89 0l0 -201.94 53.66 54.13 0 147.81 -53.66 0zm95.75 0l0 -148.1 53.67 -53.67 0 201.77 -53.67 0zm95.76 0l0 -244.32 53.66 -53.66 0 297.98 -53.66 0zm-383.16 -120.12l0 -76.81 170.6 -170.61 95.61 95.61 170.61 -170.61 0 76.82 -170.6 170.6 -95.61 -95.6 -170.61 170.6z"/>
 </g>
</svg>
