<?xml version="1.0" encoding="UTF-8"?>
<!DOCTYPE svg PUBLIC "-//W3C//DTD SVG 1.1//EN" "http://www.w3.org/Graphics/SVG/1.1/DTD/svg11.dtd">
<!-- Creator: CorelDRAW (Evaluation Version) -->
<svg xmlns="http://www.w3.org/2000/svg" xml:space="preserve" width="5850px" height="3140px" version="1.1" style="shape-rendering:geometricPrecision; text-rendering:geometricPrecision; image-rendering:optimizeQuality; fill-rule:evenodd; clip-rule:evenodd"
viewBox="0 0 5850 3140"
 xmlns:xlink="http://www.w3.org/1999/xlink"
 xmlns:xodm="http://www.corel.com/coreldraw/odm/2003">
 <defs>
  <style type="text/css">
   <![CDATA[
    .fil1 {fill:white}
    .fil0 {fill:white;fill-rule:nonzero}
   ]]>
  </style>
 </defs>
 <g id="Layer_x0020_1">
  <metadata id="CorelCorpID_0Corel-Layer"/>
  <g id="_105553896028960">
   <path class="fil0" d="M536.33 1735.63c87.14,0 132.89,-41.41 132.89,-109.3 0,-43.81 -26.01,-79.44 -89.08,-91l-40.44 -7.7c-21.67,-3.85 -33.71,-12.03 -33.71,-27.45 0,-18.77 13,-29.85 43.34,-29.85 22.63,0 51.52,11.56 82.81,28.9l27.44 -60.19c-38.51,-26.96 -75.58,-34.67 -112.18,-34.67 -86.66,0 -122.77,49.11 -122.77,108.82 0,44.29 25.52,72.21 89.07,83.77l40.45 7.71c21.66,3.85 33.69,15.88 33.69,31.29 0,20.7 -18.29,33.71 -51.51,33.71 -24.56,0 -57.78,-12.52 -93.89,-35.63l-27.45 60.18c38.52,29.37 75.12,41.41 121.34,41.41zm311.58 -4.82l0 -321.62 -80.4 0 0 321.62 80.4 0zm351.55 0l0 -67.4 -158.41 0 0 -66.93 143.97 0 0 -62.59 -143.97 0 0 -57.3 158.41 0 0 -67.4 -238.81 0 0 321.62 238.81 0zm391.51 0l0 -321.62 -80.4 0 0 199.81 -121.34 -199.81 -85.22 0 0 321.62 80.41 0 0 -199.81 121.33 199.81 85.22 0zm420.4 0l-122.29 -321.62 -89.07 0 -122.3 321.62 87.15 0 17.81 -52 123.74 0 17.82 52 87.14 0zm-125.66 -117.48l-82.33 0 40.92 -120.37 41.41 120.37z"/>
   <path class="fil0" d="M3163.34 1735.63c44.3,0 79.45,-12.52 110.26,-37.08l-17.33 -32.25c-26.96,21.18 -56.82,32.74 -92.93,32.74 -74.14,0 -120.37,-52 -120.37,-129.04 0,-77.04 46.23,-129.03 120.37,-129.03 36.11,0 65.97,11.55 92.93,32.74l17.33 -32.26c-30.81,-24.56 -65.96,-37.08 -110.26,-37.08 -100.63,0 -162.73,69.34 -162.73,165.63 0,96.3 62.1,165.63 162.73,165.63zm424.88 -4.82l0 -36.59 -154.07 0 0 -285.03 -41.41 0 0 321.62 195.48 0zm160.06 0l0 -321.62 -41.41 0 0 321.62 41.41 0zm404.65 0l0 -321.62 -41.4 0 0 262.89 -180.08 -262.89 -46.22 0 0 321.62 41.41 0 0 -262.88 180.07 262.88 46.22 0zm177.88 0l0 -321.62 -41.41 0 0 321.62 41.41 0zm285.25 4.82c44.3,0 79.44,-12.52 110.26,-37.08l-17.34 -32.25c-26.96,21.18 -56.81,32.74 -92.92,32.74 -74.15,0 -120.37,-52 -120.37,-129.04 0,-77.04 46.22,-129.03 120.37,-129.03 36.11,0 65.96,11.55 92.92,32.74l17.34 -32.26c-30.82,-24.56 -65.96,-37.08 -110.26,-37.08 -100.63,0 -162.74,69.34 -162.74,165.63 0,96.3 62.11,165.63 162.74,165.63zm512.5 -4.82l-131.92 -321.62 -45.26 0 -131.92 321.62 44.77 0 27.45 -70.29 164.18 0 27.92 70.29 44.78 0zm-86.18 -104.96l-136.74 0 68.37 -172.85 68.37 172.85zm392.62 104.96l0 -36.59 -154.08 0 0 -285.03 -41.4 0 0 321.62 195.48 0z"/>
   <g>
    <path class="fil1" d="M2343.51 2213.25c-1.05,-3.52 -2.03,-7.06 -2.53,-9.37 -38.76,-177.69 -46.13,-361.61 46.25,-526.44 119.97,-214.04 350.33,-358.92 234.31,-648.33 -10.88,-27.12 -37.15,-85.9 -60.52,-102.36 5.54,7.25 14.36,22.3 18.39,30.22 39.72,77.11 31.35,169.48 6.8,249.93 -38.38,125.7 -192.99,267.35 -264.22,394.04 -64.97,115.56 -86.27,216.27 -70.81,348.53 9.56,81.74 21.4,133.96 63.11,215.71 2.56,5.02 17.98,33.22 29.22,48.07z"/>
    <path class="fil1" d="M2389.89 2097.78c1.59,-7.19 19.1,-97.73 23.34,-112.32 19.31,-66.48 34.91,-103.73 64.92,-161.7 48.85,-94.35 110.64,-144.64 179.03,-220.8 78.99,-87.97 140,-264.13 90.69,-347.05 0,188.57 -171.42,318.51 -272.47,455.67 -40.75,55.31 -67.28,129.03 -81.48,195.98 -17.66,83.31 -10.67,149.81 -4.03,190.22z"/>
   </g>
  </g>
 </g>
</svg>
