<?xml version="1.0" encoding="UTF-8"?>
<!DOCTYPE svg PUBLIC "-//W3C//DTD SVG 1.1//EN" "http://www.w3.org/Graphics/SVG/1.1/DTD/svg11.dtd">
<!-- Creator: CorelDRAW (Evaluation Version) -->
<svg xmlns="http://www.w3.org/2000/svg" xml:space="preserve" width="4770px" height="4770px" version="1.1" style="shape-rendering:geometricPrecision; text-rendering:geometricPrecision; image-rendering:optimizeQuality; fill-rule:evenodd; clip-rule:evenodd"
viewBox="0 0 4770 4770"
 xmlns:xlink="http://www.w3.org/1999/xlink"
 xmlns:xodm="http://www.corel.com/coreldraw/odm/2003">
 <defs>
  <style type="text/css">
   <![CDATA[
    .fil0 {fill:white}
    .fil1 {fill:white;fill-rule:nonzero}
   ]]>
  </style>
 </defs>
 <g id="Layer_x0020_1">
  <metadata id="CorelCorpID_0Corel-Layer"/>
  <g id="_105553896083456">
   <path class="fil0" d="M1436.77 3995.1c4.84,-21.94 58.23,-298 71.16,-342.49 58.88,-202.71 106.44,-316.3 197.96,-493.06 148.95,-287.7 337.36,-441.04 545.88,-673.25 240.87,-268.25 426.88,-805.37 276.55,-1058.21 0,574.96 -522.71,971.18 -830.81,1389.4 -124.25,168.67 -205.16,393.45 -248.44,597.59 -53.87,254.03 -32.54,456.78 -12.3,580.02z"/>
   <path class="fil0" d="M1295.33 4347.19c-3.2,-10.72 -6.18,-21.54 -7.71,-28.59 -118.16,-541.8 -140.65,-1102.59 141.05,-1605.19 365.79,-652.65 1068.19,-1094.41 714.42,-1976.88 -33.15,-82.72 -113.27,-261.94 -184.53,-312.13 16.91,22.12 43.78,68.01 56.1,92.15 121.1,235.13 95.59,516.79 20.71,762.08 -117.01,383.28 -588.45,815.2 -805.65,1201.52 -198.1,352.36 -263.05,659.44 -215.9,1062.73 29.14,249.23 65.24,408.45 192.42,657.73 7.8,15.3 54.84,101.28 89.09,146.58z"/>
   <path class="fil1" d="M2021.27 3433.41c65.85,0 100.42,-31.29 100.42,-82.59 0,-33.11 -19.65,-60.03 -67.31,-68.76l-30.56 -5.82c-16.38,-2.92 -25.47,-9.1 -25.47,-20.75 0,-14.18 9.82,-22.55 32.74,-22.55 17.1,0 38.93,8.73 62.58,21.83l20.74 -45.48c-29.11,-20.38 -57.12,-26.2 -84.77,-26.2 -65.49,0 -92.78,37.12 -92.78,82.23 0,33.47 19.28,54.57 67.31,63.3l30.56 5.82c16.37,2.92 25.47,12.01 25.47,23.65 0,15.65 -13.83,25.47 -38.93,25.47 -18.56,0 -43.66,-9.45 -70.95,-26.92l-20.74 45.48c29.11,22.19 56.76,31.29 91.69,31.29zm235.45 -3.64l0 -243.04 -60.76 0 0 243.04 60.76 0zm265.64 0l0 -50.94 -119.69 0 0 -50.57 108.78 0 0 -47.3 -108.78 0 0 -43.29 119.69 0 0 -50.94 -180.45 0 0 243.04 180.45 0zm295.85 0l0 -243.04 -60.76 0 0 150.99 -91.68 -150.99 -64.4 0 0 243.04 60.76 0 0 -150.99 91.68 150.99 64.4 0zm317.68 0l-92.41 -243.04 -67.31 0 -92.41 243.04 65.85 0 13.46 -39.29 93.5 0 13.47 39.29 65.85 0zm-94.96 -88.78l-62.21 0 30.92 -90.95 31.29 90.95z"/>
   <path class="fil1" d="M2052.56 3798.96c33.47,0 60.03,-9.46 83.31,-28.01l-13.1 -24.38c-20.37,16.01 -42.93,24.74 -70.21,24.74 -56.03,0 -90.96,-39.29 -90.96,-97.5 0,-58.22 34.93,-97.51 90.96,-97.51 27.28,0 49.84,8.73 70.21,24.74l13.1 -24.38c-23.28,-18.55 -49.84,-28.01 -83.31,-28.01 -76.05,0 -122.98,52.39 -122.98,125.16 0,72.76 46.93,125.15 122.98,125.15zm321.06 -3.64l0 -27.65 -116.43 0 0 -215.38 -31.29 0 0 243.03 147.72 0zm120.95 0l0 -243.03 -31.3 0 0 243.03 31.3 0zm305.77 0l0 -243.03 -31.29 0 0 198.65 -136.07 -198.65 -34.93 0 0 243.03 31.29 0 0 -198.64 136.07 198.64 34.93 0zm134.42 0l0 -243.03 -31.29 0 0 243.03 31.29 0zm215.54 3.64c33.48,0 60.03,-9.46 83.32,-28.01l-13.1 -24.38c-20.37,16.01 -42.93,24.74 -70.22,24.74 -56.03,0 -90.95,-39.29 -90.95,-97.5 0,-58.22 34.92,-97.51 90.95,-97.51 27.29,0 49.85,8.73 70.22,24.74l13.1 -24.38c-23.29,-18.55 -49.84,-28.01 -83.32,-28.01 -76.04,0 -122.97,52.39 -122.97,125.16 0,72.76 46.93,125.15 122.97,125.15zm387.28 -3.64l-99.69 -243.03 -34.2 0 -99.69 243.03 33.84 0 20.73 -53.11 124.07 0 21.1 53.11 33.84 0zm-65.13 -79.31l-103.32 0 51.66 -130.61 51.66 130.61zm296.69 79.31l0 -27.65 -116.43 0 0 -215.38 -31.29 0 0 243.03 147.72 0z"/>
  </g>
 </g>
</svg>
